HIERARCHY
ROOT Hips
{
	OFFSET 0.000000 0.000000 0.000000
	CHANNELS 6 Xposition Yposition Zposition Xrotation Yrotation Zrotation
	JOINT LeftUpLeg_virtual
	{
		OFFSET 0.000000 0.000000 0.000000
		CHANNELS 3 Xrotation Yrotation Zrotation
		JOINT LeftUpLeg
		{
			OFFSET 15.427100 -6.655098 0.678600
			CHANNELS 3 Xrotation Yrotation Zrotation
			JOINT LeftLeg
			{
				OFFSET 4.081073 -39.591068 13.024000
				CHANNELS 3 Xrotation Yrotation Zrotation
				JOINT LeftFoot
				{
					OFFSET -4.081074 -37.707932 -15.979700
					CHANNELS 3 Xrotation Yrotation Zrotation
					JOINT LeftToeBase
					{
						OFFSET 5.346399 -15.068900 20.645000
						CHANNELS 3 Xrotation Yrotation Zrotation
						JOINT LeftToe_End
						{
							OFFSET 2.754700 0.931300 11.300900
							CHANNELS 3 Xrotation Yrotation Zrotation
							End Site
							{
								OFFSET 0 0 0
							}
						}
					}
				}
			}
		}
	}
	JOINT RightUpLeg_virtual
	{
		OFFSET 0.000000 0.000000 0.000000
		CHANNELS 3 Xrotation Yrotation Zrotation
		JOINT RightUpLeg
		{
			OFFSET -15.569500 -6.655098 0.678600
			CHANNELS 3 Xrotation Yrotation Zrotation
			JOINT RightLeg
			{
				OFFSET -4.081825 -39.591045 13.023800
				CHANNELS 3 Xrotation Yrotation Zrotation
				JOINT RightFoot
				{
					OFFSET 4.081824 -37.707954 -15.979600
					CHANNELS 3 Xrotation Yrotation Zrotation
					JOINT RightToeBase
					{
						OFFSET -5.346400 -15.068900 20.645000
						CHANNELS 3 Xrotation Yrotation Zrotation
						JOINT RightToe_End
						{
							OFFSET -2.754700 0.931300 11.300900
							CHANNELS 3 Xrotation Yrotation Zrotation
							End Site
							{
								OFFSET 0 0 0
							}
						}
					}
				}
			}
		}
	}
	JOINT Spine_virtual
	{
		OFFSET 0.000000 0.000000 0.000000
		CHANNELS 3 Xrotation Yrotation Zrotation
		JOINT Spine
		{
			OFFSET -0.279200 12.230698 -2.892100
			CHANNELS 3 Xrotation Yrotation Zrotation
			JOINT Spine1
			{
				OFFSET -0.232667 10.192268 -1.242267
				CHANNELS 3 Xrotation Yrotation Zrotation
				JOINT Spine1_split
				{
					OFFSET -0.232667 10.192268 -1.242267
					CHANNELS 3 Xrotation Yrotation Zrotation
					JOINT Spine2
					{
						OFFSET -0.232667 10.192268 -1.242267
						CHANNELS 3 Xrotation Yrotation Zrotation
						JOINT Neck_virtual
						{
							OFFSET 0.000000 0.000000 0.000000
							CHANNELS 3 Xrotation Yrotation Zrotation
							JOINT Neck
							{
								OFFSET -0.418800 17.814194 8.416900
								CHANNELS 3 Xrotation Yrotation Zrotation
								JOINT Head
								{
									OFFSET 0.000000 7.031097 3.806800
									CHANNELS 3 Xrotation Yrotation Zrotation
									JOINT HeadTop_End
									{
										OFFSET 0.000000 24.646606 12.978600
										CHANNELS 3 Xrotation Yrotation Zrotation
										End Site
										{
											OFFSET 0 0 0
										}
									}
								}
							}
						}
						JOINT LeftShoulder_virtual
						{
							OFFSET 0.000000 0.000000 0.000000
							CHANNELS 3 Xrotation Yrotation Zrotation
							JOINT LeftShoulder
							{
								OFFSET 8.476499 7.247704 -3.868750
								CHANNELS 3 Xrotation Yrotation Zrotation
								JOINT LeftShoulder_split
								{
									OFFSET 8.476499 7.247704 -3.868750
									CHANNELS 3 Xrotation Yrotation Zrotation
									JOINT LeftArm
									{
										OFFSET 9.308998 -2.777710 0.208600
										CHANNELS 3 Xrotation Yrotation Zrotation
										JOINT LeftForeArm
										{
											OFFSET 29.972298 0.000000 0.000000
											CHANNELS 3 Xrotation Yrotation Zrotation
											JOINT LeftHand
											{
												OFFSET 26.026505 0.000000 0.000000
												CHANNELS 3 Xrotation Yrotation Zrotation
												End Site
												{
													OFFSET 0 0 0
												}
											}
										}
									}
								}
							}
						}
						JOINT RightShoulder_virtual
						{
							OFFSET 0.000000 0.000000 0.000000
							CHANNELS 3 Xrotation Yrotation Zrotation
							JOINT RightShoulder
							{
								OFFSET -7.570500 7.247704 -3.868750
								CHANNELS 3 Xrotation Yrotation Zrotation
								JOINT RightShoulder_split
								{
									OFFSET -7.570500 7.247704 -3.868750
									CHANNELS 3 Xrotation Yrotation Zrotation
									JOINT RightArm
									{
										OFFSET -9.308998 -2.777710 0.208500
										CHANNELS 3 Xrotation Yrotation Zrotation
										JOINT RightForeArm
										{
											OFFSET -29.972300 0.000000 0.000000
											CHANNELS 3 Xrotation Yrotation Zrotation
											JOINT RightHand
											{
												OFFSET -26.026505 0.000000 0.000000
												CHANNELS 3 Xrotation Yrotation Zrotation
												End Site
												{
													OFFSET 0 0 0
												}
											}
										}
									}
								}
							}
						}
					}
				}
			}
		}
	}
}
MOTION
Frames: 9
Frame Time: 0.03333333
3.741832 80.212952 -8.533516 0.000000 0.000000 0.000000 -0.488397 -5.459371 -1.722058 -32.290351 19.114044 18.439849 48.485635 3.538626 5.732953 -14.278784 2.143633 -17.322068 -4.654884 -1.392870 -1.454126 0.000000 0.000000 0.000000 -0.087745 -3.071123 -1.791137 -24.139538 -19.982231 -13.201828 45.544343 6.549483 -2.439347 -19.317757 -8.180049 18.635418 6.357010 2.911853 -16.685674 0.000000 0.000000 0.000000 -1.681101 -0.403980 -2.456279 5.578780 -7.186872 1.070942 -0.154154 1.098891 -0.746272 0.282941 -0.454519 -0.009478 0.000000 0.000000 0.000000 0.259189 4.028288 0.094637 -1.249389 6.940106 15.399283 -40.717421 -48.817401 -40.476090 0.000000 0.000000 0.000000 0.340729 1.787626 -0.837249 1.736716 -4.884038 18.691364 2.881717 3.274330 -2.817119 -36.398303 -51.360024 -39.272963 13.218731 -58.731950 14.819673 0.000000 0.000000 0.000000 1.336838 2.464413 0.386419 0.440564 4.941944 3.713193 4.761345 3.724686 -1.078166 -4.232052 80.257482 -6.478456 -33.109079 36.165401 24.228139 0.000000 0.000000 0.000000 
3.914029 80.169724 -8.629719 0.000000 0.000000 0.000000 -0.242249 -5.383078 -1.688998 -31.860708 18.694296 18.108186 48.476397 3.541764 5.780296 -15.106118 2.279565 -17.022107 -4.096113 -1.451952 -1.312840 0.000000 0.000000 0.000000 -0.050721 -3.283153 -1.690222 -24.284736 -19.797061 -13.307613 45.987807 6.698792 -2.464375 -19.508455 -8.328009 18.843432 6.696609 2.794479 -16.722489 0.000000 0.000000 0.000000 -1.356528 -0.492791 -2.554135 5.108955 -7.063627 1.155072 -0.266921 1.123009 -0.731196 0.196125 -0.443438 -0.001566 0.000000 0.000000 0.000000 0.349742 4.100142 0.079607 -1.500069 7.110086 15.204947 -39.515008 -48.969017 -39.551139 0.000000 0.000000 0.000000 0.498403 1.787855 -0.843558 1.558569 -4.446803 18.501429 2.407868 2.102392 -2.207089 -34.955436 -51.862514 -39.374026 14.209635 -57.309030 15.628897 0.000000 0.000000 0.000000 1.405713 2.506863 0.328340 0.411504 4.724707 3.779060 4.471434 4.413859 -0.299826 -15.714911 78.959439 4.380351 -33.617952 36.457798 24.594847 0.000000 0.000000 0.000000 
4.298286 79.945656 -8.735554 0.000000 0.000000 0.000000 -0.088594 -5.707694 -1.521336 -31.269333 18.421620 17.418084 48.457289 3.830045 5.848952 -16.255599 2.829077 -16.694832 -3.100166 -1.513161 -1.183927 0.000000 0.000000 0.000000 0.027559 -3.951984 -1.474474 -24.914741 -19.345350 -13.586728 46.672134 6.843821 -2.567781 -19.845688 -8.623641 19.153216 7.380546 2.542138 -16.779546 0.000000 0.000000 0.000000 -1.068486 -1.416706 -2.403518 4.424584 -6.688425 1.262585 -0.189000 1.202518 -0.646694 0.096022 -0.441574 -0.004594 0.000000 0.000000 0.000000 0.513562 4.227494 0.144192 -1.806363 7.535456 14.542210 -36.769886 -47.934213 -37.671038 0.000000 0.000000 0.000000 0.776613 1.843761 -0.852248 1.351877 -3.823084 17.914119 2.335285 1.090365 -1.354691 -33.514765 -52.711432 -39.769709 12.969661 -56.399071 14.897780 0.000000 0.000000 0.000000 1.596926 2.616703 0.380603 0.177676 4.282868 4.118988 4.604278 4.721103 0.487811 -28.797713 77.734765 16.429856 -33.990590 36.451914 24.951844 0.000000 0.000000 0.000000 
4.828763 79.612106 -8.818089 0.000000 0.000000 0.000000 0.033451 -6.336393 -1.198349 -30.680305 18.278464 16.423892 48.462214 4.305736 5.927395 -17.188695 3.450510 -16.457336 -2.527043 -1.590129 -0.986925 0.000000 0.000000 0.000000 0.251511 -4.923039 -1.127675 -26.038689 -18.681551 -14.072616 47.541200 7.026777 -2.724442 -20.143497 -8.903736 19.709419 8.168795 2.229208 -16.872698 0.000000 0.000000 0.000000 -0.908234 -2.851155 -1.989948 3.695071 -6.165608 1.441880 0.117474 1.278774 -0.476045 0.063415 -0.516872 -0.005649 0.000000 0.000000 0.000000 0.726518 4.338941 0.335185 -2.131319 8.134095 13.534325 -32.836865 -45.677074 -35.075272 0.000000 0.000000 0.000000 1.126704 1.909875 -0.806359 1.173384 -3.146253 17.125591 2.587203 0.568923 -0.598609 -32.529029 -53.577295 -40.409127 10.170198 -56.220663 13.119214 0.000000 0.000000 0.000000 1.957703 2.759303 0.548667 -0.263242 3.711229 4.690651 5.103489 4.769593 0.917882 -41.007493 76.951070 27.418126 -33.901313 35.959262 24.927665 0.000000 0.000000 0.000000 
5.429962 79.274841 -8.895889 0.000000 0.000000 0.000000 0.139063 -7.150483 -0.696622 -30.155562 18.265469 15.268056 48.568287 4.930101 5.973796 -17.679540 3.848840 -16.162475 -2.785808 -1.675032 -0.721017 0.000000 0.000000 0.000000 0.574460 -5.903276 -0.638254 -27.458908 -17.906538 -14.725676 48.506938 7.265551 -2.934884 -20.323260 -9.078959 20.530920 8.911955 1.918584 -16.975598 0.000000 0.000000 0.000000 -0.752055 -4.452069 -1.450720 3.035385 -5.600958 1.756652 0.636290 1.325998 -0.213470 0.125594 -0.580860 -0.043287 0.000000 0.000000 0.000000 0.941210 4.367778 0.622678 -2.482474 8.773053 12.481935 -27.885202 -42.457487 -31.947551 0.000000 0.000000 0.000000 1.524775 1.931510 -0.675017 0.978860 -2.501339 16.291299 2.488896 0.114441 0.024134 -31.984786 -53.984804 -41.034141 6.599865 -56.420880 10.863571 0.000000 0.000000 0.000000 2.464529 2.881355 0.820959 -0.913304 3.083266 5.256382 6.011927 4.707371 1.000038 -51.837574 76.859962 37.296327 -33.202017 35.092037 24.324107 0.000000 0.000000 0.000000 
6.039341 78.981903 -9.029907 0.000000 0.000000 0.000000 0.268573 -7.926164 -0.039136 -29.763338 18.257232 14.048113 48.774272 5.679488 6.021784 -17.778521 3.825920 -15.691525 -3.327008 -1.751876 -0.571095 0.000000 0.000000 0.000000 0.940097 -6.708301 -0.035517 -29.022789 -17.172024 -15.485615 49.461638 7.530113 -3.222706 -20.396953 -9.166564 21.475937 9.347285 1.687492 -17.073571 0.000000 0.000000 0.000000 -0.571304 -5.907915 -0.923133 2.551633 -5.100372 2.183644 1.311662 1.313653 0.107473 0.225841 -0.570581 -0.025874 0.000000 0.000000 0.000000 1.195153 4.256575 0.929751 -2.827431 9.328399 11.635290 -22.084585 -38.361457 -28.389422 0.000000 0.000000 0.000000 1.950233 1.858235 -0.428933 0.717911 -1.899151 15.611401 2.592697 -0.171907 0.364209 -32.106165 -54.092421 -41.835394 3.349774 -56.905625 8.854652 0.000000 0.000000 0.000000 3.078506 2.932296 1.139596 -1.748133 2.426043 5.578716 7.085526 4.601367 0.605500 -61.813984 77.516623 46.845313 -32.099109 34.293297 23.273830 0.000000 0.000000 0.000000 
6.607746 78.793030 -9.194920 0.000000 0.000000 0.000000 0.326793 -8.355564 0.597063 -29.409108 17.944690 12.802798 49.017659 6.387662 6.108840 -17.662454 3.328499 -15.090015 -3.454936 -1.805427 -0.814509 0.000000 0.000000 0.000000 1.179090 -7.194817 0.552078 -30.379360 -16.552975 -16.266995 50.158836 7.772535 -3.569847 -20.345376 -9.159888 22.434617 9.347369 1.574499 -17.163926 0.000000 0.000000 0.000000 -0.337576 -7.009749 -0.572708 2.238229 -4.741111 2.685196 2.020127 1.178654 0.452228 0.277693 -0.445206 -0.023056 0.000000 0.000000 0.000000 1.464184 4.008831 1.168351 -3.149333 9.790205 11.063375 -15.634721 -33.631206 -24.611468 0.000000 0.000000 0.000000 2.442008 1.648110 -0.066614 0.368404 -1.400126 15.159438 2.769580 -0.003051 0.056726 -32.397145 -54.299352 -42.566531 1.374306 -57.580066 7.637128 0.000000 0.000000 0.000000 3.723020 2.852764 1.440903 -2.669766 1.618349 5.542540 8.174142 4.534762 -0.005473 -71.288194 78.600738 56.534900 -30.915021 33.987820 22.025878 0.000000 0.000000 0.000000 
7.107212 78.748337 -9.428478 0.000000 0.000000 0.000000 0.235567 -8.122679 0.949102 -29.244240 17.120658 11.857227 49.239305 6.658728 6.269722 -17.398396 2.309478 -14.874328 -3.413419 -1.811621 -1.237309 0.000000 0.000000 0.000000 1.194974 -7.053937 0.882020 -31.094276 -16.206225 -16.850089 50.409969 7.954196 -3.860347 -20.135917 -9.069282 23.277162 8.881404 1.594679 -17.187285 0.000000 0.000000 0.000000 -0.064433 -7.424360 -0.559503 2.052125 -4.570821 3.182195 2.632144 0.874839 0.758458 0.279567 -0.232094 -0.075196 0.000000 0.000000 0.000000 1.777240 3.595911 1.259109 -3.469996 10.250880 10.768092 -8.680516 -28.525657 -20.747973 0.000000 0.000000 0.000000 2.998450 1.244810 0.355268 -0.115630 -1.049422 15.055101 3.002040 0.703670 -0.499166 -32.438935 -55.080722 -42.801964 0.695365 -57.769180 7.127901 0.000000 0.000000 0.000000 4.356191 2.552861 1.656887 -3.562238 0.667292 5.093548 8.702296 4.287493 -0.282397 -78.750326 79.655462 65.051733 -29.849580 34.265430 20.784300 0.000000 0.000000 0.000000 
7.445704 78.802124 -9.590233 0.000000 0.000000 0.000000 -0.017959 -6.996326 0.749874 -29.433184 15.828369 11.505613 49.442800 6.470517 6.401067 -17.048366 0.802965 -15.170422 -3.677960 -1.786685 -1.651380 0.000000 0.000000 0.000000 0.978526 -6.181782 0.660018 -30.754884 -16.307814 -16.933622 49.992207 7.989983 -3.957968 -19.837332 -9.010783 23.768440 8.006875 1.740643 -17.081173 0.000000 0.000000 0.000000 -0.033243 -6.879597 -0.965167 1.968871 -4.618720 3.506745 3.095785 0.347884 0.960714 0.246675 -0.059459 -0.107899 0.000000 0.000000 0.000000 2.194263 3.040380 1.189279 -3.710161 10.786393 10.673164 -1.427602 -23.322629 -17.119516 0.000000 0.000000 0.000000 3.570476 0.614572 0.759217 -0.705243 -1.094109 15.270503 3.016272 2.205264 -1.053180 -32.676759 -56.913098 -42.769538 0.904283 -56.938663 6.852847 0.000000 0.000000 0.000000 4.925880 2.000292 1.736609 -4.319233 -0.301207 4.484327 8.223100 3.880649 0.024068 -81.809848 80.605958 69.911979 -29.035964 34.869089 19.719262 0.000000 0.000000 0.000000 
